<?xml version="1.0" encoding="UTF-8"?>
<svg xmlns="http://www.w3.org/2000/svg" xmlns:xlink="http://www.w3.org/1999/xlink" width="32px" height="32px" viewBox="0 0 32 32" version="1.1">
<defs>
<clipPath id="clip1">
  <path d="M 1.960938 1.960938 L 30.039062 1.960938 L 30.039062 30.039062 L 1.960938 30.039062 Z M 1.960938 1.960938 "/>
</clipPath>
</defs>
<g id="surface1">
<path style=" stroke:none;fill-rule:evenodd;fill:rgb(100%,100%,100%);fill-opacity:1;" d="M 2.347656 2.347656 C 0.015625 4.679688 0.015625 8.429688 0.015625 15.933594 C 0.015625 23.4375 0.015625 27.191406 2.347656 29.519531 C 4.679688 31.851562 8.429688 31.851562 15.933594 31.851562 C 23.4375 31.851562 27.191406 31.851562 29.519531 29.519531 C 31.851562 27.191406 31.851562 23.4375 31.851562 15.933594 C 31.851562 8.429688 31.851562 4.679688 29.519531 2.347656 C 27.191406 0.015625 23.4375 0.015625 15.933594 0.015625 C 8.429688 0.015625 4.679688 0.015625 2.347656 2.347656 M 7.058594 11.988281 C 7.480469 11.480469 8.234375 11.410156 8.738281 11.832031 L 9.179688 12.199219 C 10.144531 13.003906 10.964844 13.683594 11.53125 14.3125 C 12.132812 14.984375 12.601562 15.75 12.601562 16.730469 C 12.601562 17.710938 12.132812 18.480469 11.53125 19.148438 C 10.964844 19.777344 10.144531 20.457031 9.179688 21.261719 L 8.738281 21.625 C 8.414062 21.914062 7.957031 22 7.550781 21.851562 C 7.140625 21.707031 6.84375 21.351562 6.773438 20.921875 C 6.703125 20.496094 6.871094 20.0625 7.210938 19.792969 L 7.582031 19.484375 C 8.632812 18.605469 9.320312 18.035156 9.757812 17.546875 C 10.175781 17.085938 10.214844 16.867188 10.214844 16.730469 C 10.214844 16.59375 10.175781 16.378906 9.757812 15.914062 C 9.316406 15.425781 8.632812 14.851562 7.582031 13.976562 L 7.210938 13.667969 C 6.703125 13.246094 6.636719 12.492188 7.058594 11.988281 M 25.085938 20.710938 C 25.085938 21.371094 24.554688 21.902344 23.894531 21.902344 L 15.933594 21.902344 C 15.273438 21.902344 14.742188 21.371094 14.742188 20.710938 C 14.742188 20.050781 15.273438 19.515625 15.933594 19.515625 L 23.894531 19.515625 C 24.554688 19.515625 25.085938 20.050781 25.085938 20.710938 "/>
<g clip-path="url(#clip1)" clip-rule="nonzero">
<path style=" stroke:none;fill-rule:nonzero;fill:rgb(100%,100%,100%);fill-opacity:1;" d="M 20.820312 1.960938 L 11.179688 1.960938 C 11.171875 1.960938 11.164062 1.960938 11.15625 1.960938 C 6.070312 1.96875 1.953125 6.09375 1.960938 11.179688 L 1.960938 20.820312 C 1.960938 20.828125 1.960938 20.835938 1.960938 20.84375 C 1.96875 25.929688 6.09375 30.046875 11.179688 30.039062 L 20.820312 30.039062 C 20.828125 30.039062 20.835938 30.039062 20.84375 30.039062 C 25.929688 30.03125 30.046875 25.90625 30.039062 20.820312 L 30.039062 11.179688 C 30.039062 11.171875 30.039062 11.164062 30.039062 11.15625 C 30.03125 6.070312 25.90625 1.953125 20.820312 1.960938 Z M 20.820312 1.960938 "/>
</g>
<path style=" stroke:none;fill-rule:evenodd;fill:rgb(0%,0%,0%);fill-opacity:1;" d="M 3.703125 3.703125 C 1.59375 5.816406 1.59375 9.210938 1.59375 16 C 1.59375 22.789062 1.59375 26.183594 3.703125 28.292969 C 5.816406 30.40625 9.210938 30.40625 16 30.40625 C 22.789062 30.40625 26.183594 30.40625 28.292969 28.292969 C 30.40625 26.1875 30.40625 22.789062 30.40625 16 C 30.40625 9.210938 30.40625 5.816406 28.292969 3.703125 C 26.1875 1.59375 22.789062 1.59375 16 1.59375 C 9.210938 1.59375 5.816406 1.59375 3.703125 3.703125 M 7.96875 12.425781 C 8.351562 11.96875 9.03125 11.90625 9.488281 12.289062 L 9.886719 12.621094 C 10.757812 13.347656 11.5 13.964844 12.015625 14.535156 C 12.558594 15.136719 12.984375 15.832031 12.984375 16.71875 C 12.984375 17.609375 12.558594 18.304688 12.015625 18.90625 C 11.5 19.476562 10.757812 20.09375 9.886719 20.820312 L 9.488281 21.152344 C 9.195312 21.410156 8.78125 21.488281 8.414062 21.355469 C 8.042969 21.222656 7.777344 20.898438 7.710938 20.511719 C 7.648438 20.125 7.800781 19.734375 8.105469 19.492188 L 8.445312 19.210938 C 9.394531 18.417969 10.011719 17.898438 10.410156 17.460938 C 10.789062 17.042969 10.824219 16.84375 10.824219 16.71875 C 10.824219 16.597656 10.789062 16.402344 10.410156 15.980469 C 10.011719 15.539062 9.394531 15.019531 8.445312 14.230469 L 8.105469 13.949219 C 7.648438 13.566406 7.585938 12.886719 7.96875 12.425781 M 24.28125 20.320312 C 24.28125 20.917969 23.800781 21.402344 23.203125 21.402344 L 16 21.402344 C 15.402344 21.402344 14.917969 20.917969 14.917969 20.320312 C 14.917969 19.726562 15.402344 19.242188 16 19.242188 L 23.203125 19.242188 C 23.800781 19.242188 24.28125 19.726562 24.28125 20.320312 "/>
</g>
</svg>
